<svg xmlns="http://www.w3.org/2000/svg" version="1.1" xmlns:xlink="http://www.w3.org/1999/xlink" xmlns:svgjs="http://svgjs.dev/svgjs" width="1440" height="560" preserveAspectRatio="none" viewBox="0 0 1440 560"><g mask="url(&quot;#SvgjsMask1311&quot;)" fill="none"><rect width="1440" height="560" x="0" y="0" fill="rgba(250, 250, 254, 1)"></rect><use xlink:href="#SvgjsG1314" transform="translate(0, 0)" fill="rgba(112, 101, 240, 1)"></use><use xlink:href="#SvgjsG1314" transform="translate(1333.9999999999998, 0)" fill="rgba(112, 101, 240, 1)"></use></g><defs><mask id="SvgjsMask1311"><rect width="1440" height="560" fill="#ffffff"></rect></mask><g id="SvgjsG1313"><path d="M8.067-0.016c-3.304 0-5.982 2.678-5.982 5.982 0 5.588 5.982 10.054 5.982 10.054s5.982-4.466 5.982-10.054c0-3.304-2.678-5.982-5.982-5.982z m0 8.625c-1.46 0-2.643-1.183-2.643-2.643S6.607 3.323 8.067 3.323s2.643 1.183 2.643 2.643S9.527 8.609 8.067 8.609z"></path></g><g id="SvgjsG1312"><path d="M0.005 7.414L16 0 8.581 15.995l-0.627-7.948z"></path></g><g id="SvgjsG1314"><use xlink:href="#SvgjsG1312" transform="translate(0, 0) scale(2.3)" fill="rgba(112, 101, 240, 1)"></use><use xlink:href="#SvgjsG1313" transform="translate(0, 133.39999999999998) scale(2.3)" fill="rgba(112, 101, 240, 1)"></use><use xlink:href="#SvgjsG1312" transform="translate(0, 266.79999999999995) scale(2.3)" fill="rgba(112, 101, 240, 1)"></use><use xlink:href="#SvgjsG1312" transform="translate(0, 400.19999999999993) scale(2.3)" fill="rgba(112, 101, 240, 1)"></use><use xlink:href="#SvgjsG1312" transform="translate(0, 533.5999999999999) scale(2.3)" fill="rgba(112, 101, 240, 1)"></use><use xlink:href="#SvgjsG1312" transform="translate(133.39999999999998, 0) scale(2.3)" fill="rgba(112, 101, 240, 1)"></use><use xlink:href="#SvgjsG1313" transform="translate(133.39999999999998, 133.39999999999998) scale(2.3)" fill="rgba(112, 101, 240, 1)"></use><use xlink:href="#SvgjsG1313" transform="translate(133.39999999999998, 266.79999999999995) scale(2.3)" fill="rgba(112, 101, 240, 1)"></use><use xlink:href="#SvgjsG1313" transform="translate(133.39999999999998, 400.19999999999993) scale(2.3)" fill="rgba(112, 101, 240, 1)"></use><use xlink:href="#SvgjsG1312" transform="translate(133.39999999999998, 533.5999999999999) scale(2.3)" fill="rgba(112, 101, 240, 1)"></use><use xlink:href="#SvgjsG1312" transform="translate(266.79999999999995, 0) scale(2.3)" fill="rgba(112, 101, 240, 1)"></use><use xlink:href="#SvgjsG1313" transform="translate(266.79999999999995, 133.39999999999998) scale(2.3)" fill="rgba(112, 101, 240, 1)"></use><use xlink:href="#SvgjsG1312" transform="translate(266.79999999999995, 266.79999999999995) scale(2.3)" fill="rgba(112, 101, 240, 1)"></use><use xlink:href="#SvgjsG1313" transform="translate(266.79999999999995, 400.19999999999993) scale(2.3)" fill="rgba(112, 101, 240, 1)"></use><use xlink:href="#SvgjsG1313" transform="translate(266.79999999999995, 533.5999999999999) scale(2.3)" fill="rgba(112, 101, 240, 1)"></use><use xlink:href="#SvgjsG1312" transform="translate(400.19999999999993, 0) scale(2.3)" fill="rgba(112, 101, 240, 1)"></use><use xlink:href="#SvgjsG1312" transform="translate(400.19999999999993, 133.39999999999998) scale(2.3)" fill="rgba(112, 101, 240, 1)"></use><use xlink:href="#SvgjsG1312" transform="translate(400.19999999999993, 266.79999999999995) scale(2.3)" fill="rgba(112, 101, 240, 1)"></use><use xlink:href="#SvgjsG1313" transform="translate(400.19999999999993, 400.19999999999993) scale(2.3)" fill="rgba(112, 101, 240, 1)"></use><use xlink:href="#SvgjsG1313" transform="translate(400.19999999999993, 533.5999999999999) scale(2.3)" fill="rgba(112, 101, 240, 1)"></use><use xlink:href="#SvgjsG1313" transform="translate(533.5999999999999, 0) scale(2.3)" fill="rgba(112, 101, 240, 1)"></use><use xlink:href="#SvgjsG1313" transform="translate(533.5999999999999, 133.39999999999998) scale(2.3)" fill="rgba(112, 101, 240, 1)"></use><use xlink:href="#SvgjsG1313" transform="translate(533.5999999999999, 266.79999999999995) scale(2.3)" fill="rgba(112, 101, 240, 1)"></use><use xlink:href="#SvgjsG1313" transform="translate(533.5999999999999, 400.19999999999993) scale(2.3)" fill="rgba(112, 101, 240, 1)"></use><use xlink:href="#SvgjsG1312" transform="translate(533.5999999999999, 533.5999999999999) scale(2.3)" fill="rgba(112, 101, 240, 1)"></use><use xlink:href="#SvgjsG1313" transform="translate(666.9999999999999, 0) scale(2.3)" fill="rgba(112, 101, 240, 1)"></use><use xlink:href="#SvgjsG1312" transform="translate(666.9999999999999, 133.39999999999998) scale(2.3)" fill="rgba(112, 101, 240, 1)"></use><use xlink:href="#SvgjsG1313" transform="translate(666.9999999999999, 266.79999999999995) scale(2.3)" fill="rgba(112, 101, 240, 1)"></use><use xlink:href="#SvgjsG1312" transform="translate(666.9999999999999, 400.19999999999993) scale(2.3)" fill="rgba(112, 101, 240, 1)"></use><use xlink:href="#SvgjsG1312" transform="translate(666.9999999999999, 533.5999999999999) scale(2.3)" fill="rgba(112, 101, 240, 1)"></use><use xlink:href="#SvgjsG1312" transform="translate(800.3999999999999, 0) scale(2.3)" fill="rgba(112, 101, 240, 1)"></use><use xlink:href="#SvgjsG1313" transform="translate(800.3999999999999, 133.39999999999998) scale(2.3)" fill="rgba(112, 101, 240, 1)"></use><use xlink:href="#SvgjsG1313" transform="translate(800.3999999999999, 266.79999999999995) scale(2.3)" fill="rgba(112, 101, 240, 1)"></use><use xlink:href="#SvgjsG1312" transform="translate(800.3999999999999, 400.19999999999993) scale(2.3)" fill="rgba(112, 101, 240, 1)"></use><use xlink:href="#SvgjsG1313" transform="translate(800.3999999999999, 533.5999999999999) scale(2.3)" fill="rgba(112, 101, 240, 1)"></use><use xlink:href="#SvgjsG1313" transform="translate(933.7999999999998, 0) scale(2.3)" fill="rgba(112, 101, 240, 1)"></use><use xlink:href="#SvgjsG1313" transform="translate(933.7999999999998, 133.39999999999998) scale(2.3)" fill="rgba(112, 101, 240, 1)"></use><use xlink:href="#SvgjsG1313" transform="translate(933.7999999999998, 266.79999999999995) scale(2.3)" fill="rgba(112, 101, 240, 1)"></use><use xlink:href="#SvgjsG1312" transform="translate(933.7999999999998, 400.19999999999993) scale(2.3)" fill="rgba(112, 101, 240, 1)"></use><use xlink:href="#SvgjsG1313" transform="translate(933.7999999999998, 533.5999999999999) scale(2.3)" fill="rgba(112, 101, 240, 1)"></use><use xlink:href="#SvgjsG1313" transform="translate(1067.1999999999998, 0) scale(2.3)" fill="rgba(112, 101, 240, 1)"></use><use xlink:href="#SvgjsG1312" transform="translate(1067.1999999999998, 133.39999999999998) scale(2.3)" fill="rgba(112, 101, 240, 1)"></use><use xlink:href="#SvgjsG1312" transform="translate(1067.1999999999998, 266.79999999999995) scale(2.3)" fill="rgba(112, 101, 240, 1)"></use><use xlink:href="#SvgjsG1312" transform="translate(1067.1999999999998, 400.19999999999993) scale(2.3)" fill="rgba(112, 101, 240, 1)"></use><use xlink:href="#SvgjsG1313" transform="translate(1067.1999999999998, 533.5999999999999) scale(2.3)" fill="rgba(112, 101, 240, 1)"></use><use xlink:href="#SvgjsG1312" transform="translate(1200.6, 0) scale(2.3)" fill="rgba(112, 101, 240, 1)"></use><use xlink:href="#SvgjsG1312" transform="translate(1200.6, 133.39999999999998) scale(2.3)" fill="rgba(112, 101, 240, 1)"></use><use xlink:href="#SvgjsG1312" transform="translate(1200.6, 266.79999999999995) scale(2.3)" fill="rgba(112, 101, 240, 1)"></use><use xlink:href="#SvgjsG1313" transform="translate(1200.6, 400.19999999999993) scale(2.3)" fill="rgba(112, 101, 240, 1)"></use><use xlink:href="#SvgjsG1313" transform="translate(1200.6, 533.5999999999999) scale(2.3)" fill="rgba(112, 101, 240, 1)"></use></g></defs></svg>